<?xml version="1.0" encoding="utf-8"?>
<!-- Copyright FindMyCoins.ninja - Unauthorised used is not permitted. -->
<svg version="1.1" id="Layer_1" xmlns="http://www.w3.org/2000/svg" xmlns:xlink="http://www.w3.org/1999/xlink" x="0px" y="0px"
	 viewBox="0 0 800 600" style="enable-background:new 0 0 800 600;" xml:space="preserve">
<style type="text/css">
	.st0{fill:none;}
	.st1{fill:#C1272D;}
	.st2{fill:#A31C26;}
	.st3{fill:#352523;}
	.st4{fill:#352726;}
	.st5{fill:#281A18;}
	.st6{fill:#3A2D28;}
	.st7{fill:#4C3F39;}
	.st8{fill:#534741;}
	.st9{fill:#493E38;}
	.st10{fill:#E0B489;}
	.st11{fill:#CC9D72;}
	.st12{fill:#281918;}
	.st13{fill:#B3B3B3;}
	.st14{fill:#1E1111;}
	.st15{fill:#2D1D1C;}
	.st16{fill:#2B1B1A;}
	.st17{opacity:5.000000e-002;fill:#F2F2F2;}
	.st18{fill:#352824;}
	.st19{fill:#3A2E29;}
	.st20{fill:#B28057;}
	.st21{fill:#CEA076;}
	.st22{fill:#C99A73;}
	.st23{fill:#2B200F;}
	.st24{fill:#351807;}
	.st25{fill:#FFFFFF;}
	.st26{opacity:0.6;fill:#F2F2F2;}
	.st27{clip-path:url(#XMLID_6_);}
	.st28{fill:#42210B;}
	.st29{clip-path:url(#XMLID_7_);}
	.st30{opacity:0.2;fill:#F2F2F2;}
	.st31{opacity:0.1;fill:#F2F2F2;}
	.st32{fill:#A0693D;}
	.st33{fill:#999999;}
	.st34{fill:#848181;}
	.st35{fill:#CCCCCC;}
	.st36{opacity:0.3;fill:#FFFFFF;}
	.st37{clip-path:url(#XMLID_8_);}
	.st38{clip-path:url(#XMLID_9_);}
	.st39{clip-path:url(#XMLID_10_);}
	.st40{clip-path:url(#XMLID_12_);}
	.st41{fill:#21170A;}
	.st42{fill:#110B04;}
	.st43{clip-path:url(#XMLID_13_);}
	.st44{fill:#E2E0E0;}
</style>
<g id="XMLID_241_">
	<g id="XMLID_171_">
		<path id="XMLID_180_" class="st0" d="M467.2,300.7c-2.9-0.7-5.9-1.4-9-2c3.1-1.1,6.1-2.2,9-3.4c20.1-8.2,35.4-18.1,46.1-29.8
			c12.2-13.4,18.3-29,18.3-46.8c0-23-7.5-40.2-22.5-51.6c-10.4-7.9-24.3-13.1-41.9-15.5v-33.5h-27.5V150h-37.3v-31.9h-27.5V150
			h-77.3v19.4l4,0.2c14.2,1.1,22.7,3.5,25.4,7.3c2.7,3.7,4.1,14.9,4.1,33.5v188.4c0,18.6-1.4,29.8-4.2,33.6
			c-2.8,3.8-11.2,6.2-25.3,7.2l-4,0.2v19.4h77.3v25.6h27.5v-25.6h37.3v25.6h27.5v-26.9c22-2.5,39.3-8.5,51.8-18
			c17-12.9,25.5-32.1,25.5-57.8c0-22-7.2-40-21.5-53.9C510.2,315.7,491.6,306.6,467.2,300.7z M402.4,170.4h3.4
			c13.5,0,24.8,2.1,33.9,6.2c4.8,2.2,8.9,4.9,12.5,8.2c8.6,8,13.6,19.4,15,34.1v19.2c-1.4,15.9-6.4,28.1-15,36.8
			c-3.5,3.6-7.7,6.5-12.5,8.9c-9.1,4.5-20.5,6.7-34.1,6.7h-3.2V170.4z M467.2,415.7c-1.2,1.5-2.4,3-3.7,4.4
			c-6.5,6.9-14.5,11.5-23.8,13.9c-5,1.3-10.3,1.9-16.1,1.9c-9.5,0-16.6-1.2-21.1-3.7V311h3.4c12.7,0,24,2.2,33.9,6.4
			c6.9,3,13.1,7,18.7,12.1c3.4,3.1,6.3,6.4,8.8,10c7.5,10.7,11.3,23.5,11.3,38.6C478.5,393.2,474.7,405.7,467.2,415.7z"/>
		<path id="XMLID_182_" class="st1" d="M458.4,329.5c-5.5-5.1-11.8-9.1-18.7-12.1c-9.9-4.3-21.2-6.4-33.9-6.4h-3.4v121.2
			c4.6,2.5,11.6,3.7,21.1,3.7c5.8,0,11.1-0.7,16.1-1.9c9.3-2.4,17.2-7,23.8-13.9c1.3-1.4,2.6-2.9,3.7-4.4
			c7.5-10,11.3-22.5,11.3-37.6c0-15-3.8-27.9-11.3-38.6C464.7,335.9,461.7,332.6,458.4,329.5z"/>
		<path id="XMLID_183_" class="st1" d="M439.7,283.8c4.8-2.3,9-5.3,12.5-8.9c8.6-8.7,13.6-20.9,15-36.8V219
			c-1.4-14.7-6.4-26.1-15-34.1c-3.5-3.3-7.7-6-12.5-8.2c-9.1-4.1-20.4-6.2-33.9-6.2h-3.4v120.1h3.2
			C419.2,290.6,430.6,288.3,439.7,283.8z"/>
		<path id="XMLID_186_" class="st1" d="M603.3,376.6c0-5.3,11.3-30.5,10.9-42.1s-19.2,50-13.2,25.2c6-24.8,13.5-80.1,13.5-80.1
			s-6.8,61.3,0,38c6.8-23.3,3.4-37.6,4.9-57.6s-0.4,53.4,4.5,35.5c1.9-6.9,3.9-21.6,5.6-36.9c-8.3-120.6-99.1-208.1-209.9-198.3
			c-85,7.6-158.3,70.4-191.5,154.4c6.8-10.6,14.7-21.7,20.6-26.2c0,0-29.5,56.8-31.1,82.2c-1.6,25.4,17.2-33.6,31.1-52.8
			c12.8-17.7-27.8,71-23,125.8c1.4,7.9,2.4,13.7,2.4,13.7c-1.2-4.2-2-8.8-2.4-13.7c-2.9-16.6-7.6-42.6-8.1-45.5
			c-0.4-2.2-4.5,9-8.5,22.6c3.1,126.6,96.1,220.1,210.5,209.9c95.8-8.5,176.7-87.2,202.2-187.4C619.6,335.2,603.3,381.1,603.3,376.6
			z M519,439.8c-12.6,9.5-29.9,15.5-51.8,18v26.9h-27.5v-25.6h-37.3v25.6h-27.5v-25.6h-77.3v-19.4l4-0.2c14.1-1,22.5-3.4,25.3-7.2
			c2.8-3.8,4.2-15,4.2-33.6V210.3c0-18.6-1.4-29.7-4.1-33.5c-2.7-3.7-11.2-6.2-25.4-7.3l-4-0.2V150h77.3v-31.9h27.5V150h37.3v-31.9
			h27.5v33.5c17.6,2.4,31.5,7.6,41.9,15.5c15,11.4,22.5,28.6,22.5,51.6c0,17.8-6.1,33.4-18.3,46.8c-10.7,11.7-26,21.6-46.1,29.8
			c-2.9,1.2-5.9,2.3-9,3.4c3.1,0.6,6,1.3,9,2c24.4,5.9,43,15,55.8,27.5c14.3,13.9,21.5,31.9,21.5,53.9
			C544.5,407.7,536,426.9,519,439.8z"/>
	</g>
	<g id="XMLID_192_">
		<path id="XMLID_193_" class="st0" d="M221.8,275.9c0.3-0.1,0.6-0.3,0.9-0.4c1.5-1,2.5-3.3,1.5-6.1c-0.1-0.3-0.2-0.5-0.3-0.8
			c-1.6,3.3-2.9,5.8-4,7.1C220.6,276.1,221.2,276.1,221.8,275.9z"/>
		<path id="XMLID_195_" class="st0" d="M224.4,335.5c0.5,2.9,1,5.6,1.5,8.2c-0.3-2.9-0.4-5.8-0.4-8.8c-0.2,0.1-0.5,0.3-0.7,0.4
			C224.7,335.4,224.5,335.4,224.4,335.5z"/>
		<path id="XMLID_196_" class="st0" d="M248.8,217.9c-6.5,8.9-14,26.5-20,40.1c5.1,7.9,8.7,16,1,25.5c0.7,0.1,1.6,0.1,2.4,0.3
			C241.9,242.1,257.4,206,248.8,217.9z"/>
		<path id="XMLID_197_" class="st0" d="M530.8,206.8c-0.1-0.6-0.2-1.2-0.3-1.8l-0.3,0.2C530.5,205.8,530.7,206.4,530.8,206.8z"/>
		<path id="XMLID_198_" class="st0" d="M375.4,345.7c-1.6-0.5-2.8-1-3.5-1.2c-4-1.2-29.5-19.5-34.4-25.3c-1.1-1.3-3.4-2.4-6.5-3.4
			v82.9c0,18.6-1.4,29.8-4.2,33.6c-2.8,3.8-11.2,6.2-25.3,7.2l-4,0.2v19.4h77.3v25.6h27.5v-25.6h6.7c-7.3-11.9-15.4-26.7-20.3-41.2
			C379.9,391.6,375.2,363.5,375.4,345.7z"/>
		<path id="XMLID_199_" class="st0" d="M482.7,341.9c7.7,6.1,14.7,15.9,15.2,21.9c0.9,9.9-8.5,23.5-8.5,23.5s0.2-31-12-39.1
			c-1.1,1.4-2.2,2.9-3.3,4.3c2.9,7.7,4.4,16.2,4.4,25.5c0,15.1-3.8,27.6-11.3,37.6c-1.2,1.5-2.4,3-3.7,4.4c-3.5,3.6-7.3,6.6-11.6,9
			c-0.3,13.6,0.8,19.8,1.9,23.4c1.2,3.9,0.4,6.9-3.5,11.5c0.3,1.2,0.6,2.4,1,3.6c5.7,1.7,12.5,5.3,12.4,13.4c0,1.1,0,2.4,0.1,3.8
			h3.4v-26.9c22-2.5,39.3-8.5,51.8-18c17-12.9,25.5-32.1,25.5-57.8c0-22-7.2-40-21.5-53.9c-4.5-4.4-9.7-8.3-15.7-11.9
			C499.1,324,490.5,332.7,482.7,341.9z"/>
		<path id="XMLID_200_" class="st0" d="M306.9,158.5c3.8-2.5,8.2-4.2,12.4-5.5c-0.1-0.6-0.1-1.2-0.1-1.8c-6.8-0.2-15.5,0.3-21.1,3.1
			c-0.2,0.1-0.4,0.2-0.5,0.3v11.9C299.9,163.6,302.8,161.2,306.9,158.5z"/>
		<path id="XMLID_201_" class="st0" d="M357.5,248.9c-2.7-0.5-4.9-2.4-6.7-4.9c-10-5-14-7.2-12.5-16.9c0.5-3.1-0.4-9.4-2-17.2
			c-1.8-4-3.7-8.2-5.5-12.4c0.2,3.8,0.3,8.1,0.3,12.9v48C353.6,253.8,371,251.5,357.5,248.9z"/>
		<path id="XMLID_202_" class="st0" d="M509.1,167.1c-10.4-7.9-24.3-13.1-41.9-15.5v-33.5h-27.5v2.5c2.3,2.6,3.3,5.9,3.1,9.1
			c-0.1,1.3,0.1,2.5,0.6,3.6c0.7,1.1,1.4,2.1,2,3.2c1.7,1.9,3.6,3,3.6,3c0,3.3,2.9,12.7,6.3,18.7c1.7,2.6,2.1,5.6,1.9,9
			c-0.1,4.3-1.1,9-2,13.8c-0.1,0.5-0.2,1-0.3,1.6c0,1.5,0,3.2-0.1,5c2.7,3,5,6.5,6.9,10.3c1.9-1.2,4.1-2.5,6.4-3.8
			c8.7-5,32.6-10.4,39.4-12c4.3-1,8.3-3.9,11.7-1.8c0.4-0.4,0.9-0.8,1.3-1.3C517.4,174.5,513.6,170.5,509.1,167.1z"/>
		<path id="XMLID_203_" class="st0" d="M526.1,211.2c-9.2,3.8-35.9,23.1-45.7,34c-6.6,7.4-9.2,19.2-10.3,31c0,0.7-0.1,1.3-0.2,2
			c0,0,0,0.1,0,0.1c-0.4,5-0.6,9.9-0.8,14.5c0,0.3,0,0.6-0.1,0.9c10.4-6.4,20.7-12.8,29.1-18c4.3-2.7,8.5-5.1,12.5-7.5
			c0.9-0.9,1.7-1.8,2.6-2.7c12.2-13.4,18.3-29,18.3-46.8c0-3.9-0.2-7.6-0.7-11.1C530.9,208.9,529.6,209.7,526.1,211.2z"/>
		<path id="XMLID_204_" class="st0" d="M317.8,172.1c2.1,0.6,3.9,1.2,5.3,1.9c-0.2-4.5-1.3-9.1-2.3-13.2
			C316.9,163.5,318.2,166.2,317.8,172.1z"/>
		<path id="XMLID_205_" class="st1" d="M467.2,415.7c7.5-10,11.3-22.5,11.3-37.6c0-9.3-1.5-17.8-4.4-25.5c-3.2,4.2-6.1,8.5-8.7,12.8
			c8,9.6,4.5,31.3,4.4,31.9c0,0.6-8.1,9.5-8.1,9.5s2.9-18.1-1.2-32.3c-3.1,6.5-5.2,12.9-5.9,19c-1.8,15.6-2.6,27.1-2.8,35.7
			c4.2-2.4,8.1-5.4,11.6-9C464.8,418.7,466.1,417.2,467.2,415.7z"/>
		<path id="XMLID_206_" class="st1" d="M461.7,197.9c-1.9-3.8-4.1-7.3-6.9-10.3c-0.1,4.7-0.3,10.2-0.7,15.2
			C455.4,201.9,458.1,200.1,461.7,197.9z"/>
		<path id="XMLID_207_" class="st1" d="M562.3,177.5c0.1,0.4,0.1,0.9,0.2,1.3c0.3,0.1,0.6,0.1,0.9,0.2c1.9,0,4.9-0.6,7.5-1.2
			c6-1.4,27.3-11.4,27.3-11.4s8.9-3-8,7.5c-6.5,4-13,8.9-18.9,12.3c-3.3,1.9-6.6,3.5-9.6,4.3c0,0.1,0,0.1-0.1,0.2
			c0,0.2,0,0.4-0.2,0.7c-0.8,2.1-2,4.1-3.4,5.6c-3.4,3.6-16.9,3.7-24.1,6.2l-3.3,2.1c0.1,0.6,0.2,1.2,0.3,1.8
			c0.1,0.3,0.1,0.5,0.1,0.7c0.4,3.5,0.7,7.2,0.7,11.1c0,17.8-6.1,33.4-18.3,46.8c-0.8,0.9-1.7,1.8-2.6,2.7
			c20.2-11.7,36.3-19.3,39.1-20.6c0.2-1,0.4-2.3,0.6-3.8c0,0,0.1-1.5,0.7-3.9c0-0.2,0.1-0.3,0.1-0.5c1.3-6.6,3.4-14.9,6.5-21.5
			c3.6-7.7,7.3-11.5,10.9-12.6c2.1-2.2,4.7-4.2,8.1-5.2c10.5-3,20.1-4.1,19,9.1c-1,13.2-11.4,48.3-20.5,56c-4.9,4.2-11.5,8-16.3,8.3
			c-1.8,7.6-4,5.4-17,14.1c-6.3,4.2-20,14.8-34.8,28.6c5.9,3.6,11.2,7.5,15.7,11.9c14.3,13.9,21.5,31.9,21.5,53.9
			c0,25.6-8.5,44.9-25.5,57.8c-12.6,9.5-29.9,15.5-51.8,18v26.9h-3.4c0.3,8.7,1.8,23.1,3.3,35.8c74.3-25.7,133.6-94.1,154.8-177.2
			c-2.3-8.2-18.6,37.8-18.6,33.3c0-5.3,11.3-30.5,10.9-42.1s-19.2,50-13.2,25.2c6-24.8,13.5-80.1,13.5-80.1s-6.8,61.3,0,38
			c6.8-23.3,3.4-37.6,4.9-57.6s-0.4,53.4,4.5,35.5c1.9-6.9,3.9-21.6,5.6-36.9c-2.7-38.4-13.7-73.5-31.1-103.1
			c-16.1,10-29.8,18.4-33,20C563.9,176.3,562.9,176.9,562.3,177.5z"/>
		<path id="XMLID_208_" class="st1" d="M220,275.8c1-1.4,2.4-3.9,4-7.1c-1-3-2.4-7.2-3.8-11.4c-1.3,5-2.2,9.6-2.5,13.4
			c0,0.6-0.1,1.1-0.1,1.6c0.3,0.6,0.5,1.1,0.7,1.5C218.7,274.8,219.3,275.5,220,275.8z"/>
		<path id="XMLID_209_" class="st1" d="M558.6,159.7c-1.3,7.6,16.1-1.7,31.2-8c1.3-0.6,3.1-1.4,5.1-2.4c-2.8-4.4-5.7-8.6-8.7-12.8
			C576.8,142.6,559.6,153.8,558.6,159.7z"/>
		<path id="XMLID_210_" class="st1" d="M324.9,142.2c7.7-10.6,22.7-31.9,34.4-37.8c14.9-7.4,40.6-0.8,49.3,4.6
			c8.7,5.5,10.9,5.6,20.7,6.6c4.8,0.5,8.2,2.4,10.5,5v-2.5h27.5v33.5c17.6,2.4,31.5,7.6,41.9,15.5c4.5,3.4,8.3,7.4,11.4,11.8
			c0.9-1,1.9-2.2,2.7-3.5c3.3-5.3,6.3-12.1,9-14c0.5-0.5,0.9-0.9,1.4-1.2c0.9-0.9,1-1.3,3.9-1.5c1.2-0.2,2.4-0.2,3.5-0.2
			c1.4-0.1,1.9-0.1,1.9-0.1s0,0,0,0c0,0,0,0,0,0c2.7-4.8,9.2-9.3,21.7-16.2c8.4-4.6,14.4-7.5,18.7-9.3
			c-38.6-49.7-97.5-78.5-163.6-72.6c-50.3,4.5-96.5,28.3-132.7,64.4c3.4,0.9,6.9,2.4,10.4,4.8C310.7,138.8,319.7,141.5,324.9,142.2z
			"/>
		<path id="XMLID_211_" class="st1" d="M427.7,520.2c-1.3-3.7-0.1-6.2-0.1-6.2c-0.3-8.3-1.1-20.5-2.5-31.3c-2.3-3.1-8.8-12-16-23.6
			h-6.7v25.6h-27.5v-25.6h-77.3v-19.4l4-0.2c14.1-1,22.5-3.4,25.3-7.2c2.8-3.8,4.2-15,4.2-33.6v-82.9c-10.6-3.2-30.7-4.5-47.1-6
			c-21.3-2.1-26.1,3.1-29.1,3c-0.7,0-1.4-1.4-2.1-3.7c-0.2,0-0.3,0.1-0.5,0.1c-1.5,0.6-3,1.3-4.5,2.1c-0.5,0.3-1,0.6-1.6,0.9
			c0,0-0.1,0-0.1,0c0,0,0,0,0,0c-0.3,0.2-0.6,0.3-0.9,0.5c-0.1,0.1-0.2,0.1-0.2,0.1c-3.4,2.1-6.3,4.6-7.7,7.3
			c-0.2,0.5-0.5,0.9-0.7,1.4c0.1,0.3,0.3,0.5,0.4,0.8l0,0v0c5.8,10.7,11.2,20.9,13.9,26.1l0,0c0,0,3.5-0.5,4.6,2.8c0,0,0,0,0,0
			c0.3,0.7,0.4,1.7,0.5,2.8c0,2.4-1.2,4.7-3.2,5.9c0,0-0.1,0.1-0.1,0.1c-0.1,0-0.1,0.1-0.2,0.1c-0.1,0.1-0.2,0.1-0.4,0.2
			c0,0-0.1,0-0.1,0c-1.7,0.8-3.9,0.8-6.5-0.5c0,0,0,0,0,0c-6.1-3.1-3.6-5.8-3.6-5.8l0,0c-2.9-3.4-7.8-11.8-13.1-21.3c0,0,0,0,0,0
			l0,0c-0.1-0.2-0.2-0.4-0.3-0.6c-0.9,0.8-1.9,1.6-3,2.3c0,3,0.1,6,0.4,8.8c1.4,7.9,2.4,13.7,2.4,13.7c-1.2-4.2-2-8.8-2.4-13.7
			c-0.5-2.5-0.9-5.3-1.5-8.2c-1.2,0.7-2.4,1.4-3.6,1.9c-0.1,0-0.2,0.1-0.3,0.1c0,0,0,0-0.1,0c0,0,0,0,0,0c0,0,0,0,0,0
			c-1.1,0.4-2.3,0.7-3.5,0.9c-3.6,0.5-5.5-0.3-6.8-1.8c10.2,118.4,100.1,203.8,209.6,194c2.6-0.2,5.3-0.5,7.9-0.9
			c0-3.2,0.1-6.4,0.1-9.4C427.7,520.3,427.7,520.3,427.7,520.2z"/>
		<path id="XMLID_212_" class="st1" d="M248.8,217.9c8.6-11.9-6.9,24.3-16.6,65.9c5.7,0.8,13.7,2.7,16.8,3.3c0,0,0,0,0,0
			c-0.1-2.3-0.1-4,0.2-4.5c1.3-2.4,11.7-1.8,43.6-14.1c11.3-4.4,25.5-7.6,38.1-10.1v-48c0-4.8-0.1-9.1-0.3-12.9
			c-4-9.3-7.4-18.4-7.6-23.3c0-0.1,0-0.1,0-0.2c-1.4-0.7-3.2-1.3-5.3-1.9c-0.2,3.8-1.2,8.8-4.6,16.1c-10.6,22.2-34.6,10.3-34.6,10.3
			s5.6,1.2,10.1-12.9c2.8-8.9,5-14.5,8.9-19.2v-11.9c-10.1,5-17.1,5.6-29.1-6.1c-0.5-0.5-0.9-0.9-1.4-1.3
			c-15.9,20.1-29.1,43-38.9,67.6c6.8-10.6,14.7-21.7,20.6-26.2c0,0-17.3,33.3-26.1,60.3c1.9,3.1,4.1,6.1,6.1,9.2
			C234.8,244.3,242.4,226.8,248.8,217.9z"/>
		<path id="XMLID_216_" class="st2" d="M222,247.6c-8-13.8-6.7-5.3-6.7-5.3s2.4,7.5,4.8,15c0.7-2.7,1.6-5.6,2.5-8.5
			C222.5,248.4,222.2,248,222,247.6z"/>
		<path id="XMLID_218_" class="st2" d="M432.8,549.2c1,0.6,2.1,1,3.2,1.2c0.7,0.7,1.4,1.4,2.2,2c16.2,12.3,33,0,32-6.9
			c-0.4-3.1-1.8-13.3-3.1-25c-12.8,4.4-26,7.6-39.5,9.3C427.5,538.3,428.1,546.4,432.8,549.2z"/>
		<path id="XMLID_221_" class="st2" d="M460.6,374.5c4.2,14.2,1.2,32.3,1.2,32.3s8.1-8.9,8.1-9.5c0-0.6,3.5-22.3-4.4-31.9
			c2.6-4.3,5.5-8.5,8.7-12.8c-1.8-4.7-4.1-9-6.9-13c-2.5-3.6-5.5-6.9-8.8-10c-5.5-5.1-11.8-9.1-18.7-12.1
			c-9.9-4.3-21.2-6.4-33.9-6.4h-3.4v121.2c4.6,2.5,11.6,3.7,21.1,3.7c5.8,0,11.1-0.7,16.1-1.9c4.4-1.1,8.5-2.8,12.2-4.9
			c0.2-8.6,1-20,2.8-35.7C455.4,387.4,457.5,381,460.6,374.5z"/>
		<path id="XMLID_222_" class="st2" d="M452.2,184.9c-3.5-3.3-7.7-6-12.5-8.2c-9.1-4.1-20.4-6.2-33.9-6.2h-3.4v120.1h3.2
			c13.6,0,25-2.3,34.1-6.7c4.8-2.3,9-5.3,12.5-8.9c8.6-8.7,13.6-20.9,15-36.8V219c-0.8-8-2.6-15-5.6-21.1c-3.5,2.2-6.2,4-7.5,4.9
			c0.3-5,0.6-10.5,0.7-15.2C454,186.6,453.1,185.7,452.2,184.9z"/>
		<path id="XMLID_223_" class="st2" d="M292.9,268.4c-31.9,12.3-42.3,11.7-43.6,14.1c-0.3,0.5-0.3,2.2-0.2,4.5c0,0,0,0,0,0
			c-3.2-0.6-11.2-2.5-16.8-3.3c-4,17.1-6.9,35.1-6.8,51.1c1.1-0.7,2.1-1.5,3-2.3c0.1,0.2,0.2,0.4,0.3,0.6l0,0c0,0,0,0,0,0
			c5.3,9.5,10.2,17.8,13.1,21.3l0,0c0,0-2.5,2.7,3.6,5.8c0,0,0,0,0,0c2.5,1.3,4.7,1.2,6.5,0.5c0,0,0.1,0,0.1,0
			c0.1-0.1,0.2-0.1,0.4-0.2c0.1,0,0.1,0,0.2-0.1c0,0,0.1-0.1,0.1-0.1c2-1.2,3.2-3.6,3.2-5.9c0-1.2-0.2-2.1-0.5-2.8c0,0,0,0,0,0
			c-1.1-3.3-4.6-2.8-4.6-2.8l0,0c-2.6-5.2-8.1-15.4-13.9-26.1v0l0,0c-0.1-0.3-0.3-0.5-0.4-0.8c0.3-0.5,0.5-1,0.7-1.4
			c1.3-2.7,4.3-5.2,7.7-7.3c0.1,0,0.2-0.1,0.2-0.1c0.3-0.2,0.6-0.3,0.9-0.5c0,0,0,0,0,0c0,0,0.1,0,0.1,0c0.5-0.3,1.1-0.6,1.6-0.9
			c1.5-0.8,3.1-1.5,4.5-2.1c0.2,0,0.3-0.1,0.5-0.1c0.7,2.2,1.4,3.6,2.1,3.7c3,0.1,7.8-5.1,29.1-3c16.4,1.6,36.5,2.9,47.1,6v-57.6
			C318.5,260.8,304.3,264.1,292.9,268.4z"/>
		<path id="XMLID_224_" class="st2" d="M530.8,206.8c0,0.2,0.1,0.5,0.1,0.7C530.9,207.4,530.9,207.1,530.8,206.8z"/>
		<path id="XMLID_225_" class="st2" d="M323.1,174c0,0.1,0,0.1,0,0.2c0.2,4.8,3.6,13.9,7.6,23.3c-0.5-10.9-1.8-17.8-3.8-20.6
			C326.2,175.8,324.9,174.8,323.1,174z"/>
		<path id="XMLID_226_" class="st2" d="M216.9,338.4c1.2-0.2,2.4-0.5,3.5-0.9c0,0,0,0,0,0c0,0,0,0,0,0c0,0,0,0,0.1,0
			c0.1,0,0.2-0.1,0.3-0.1c1.3-0.5,2.5-1.1,3.6-1.9c-2.8-15.8-6.2-34.9-6.7-37.4c-0.4-2.2-4.5,9-8.5,22.6c0.1,5.4,0.4,10.7,0.9,15.9
			C211.4,338.1,213.3,338.9,216.9,338.4z"/>
		<path id="XMLID_227_" class="st2" d="M439.7,484.7v-25.6h-30.6c7.2,11.6,13.7,20.5,16,23.6c1.4,10.8,2.2,23,2.5,31.3
			c0,0-1.2,2.5,0.1,6.2c0,0.1,0,0.1,0,0.2c0,3-0.1,6.3-0.1,9.4c13.5-1.8,26.7-4.9,39.5-9.3c-1.5-12.7-3-27.1-3.3-35.8H439.7z"/>
		<path id="XMLID_228_" class="st2" d="M220,275.8c-0.7-0.3-1.3-1-1.7-2c-0.1-0.4-0.4-0.9-0.7-1.5
			C217.5,277.2,218.4,277.9,220,275.8z"/>
		<path id="XMLID_229_" class="st2" d="M589.8,151.7c-15.1,6.3-32.5,15.6-31.2,8c1-5.9,18.2-17.1,27.5-23.2
			c-0.9-1.2-1.8-2.4-2.8-3.6c-4.3,1.8-10.4,4.7-18.7,9.3c-12.4,6.9-19,11.4-21.7,16.2c0,0,0,0,0,0c0,0,0,0,0,0s-0.6,0-1.9,0.1
			c-1.1,0-2.3,0-3.5,0.2c-2.9,0.2-2.9,0.5-3.9,1.5c-0.5,0.3-1,0.7-1.4,1.2c-2.7,1.9-5.7,8.7-9,14c-0.8,1.3-1.8,2.5-2.7,3.5
			c5.1,7.3,8.5,16,10,26.1l3.3-2.1c7.2-2.4,20.7-2.6,24.1-6.2c1.4-1.5,2.6-3.5,3.4-5.6c0.2-0.2,0.3-0.5,0.2-0.7c0-0.1,0-0.1,0.1-0.2
			c3-0.8,6.2-2.4,9.6-4.3c6-3.4,12.4-8.3,18.9-12.3c16.9-10.4,8-7.5,8-7.5s-21.3,10-27.3,11.4c-2.6,0.6-5.6,1.2-7.5,1.2
			c-0.3,0-0.6-0.1-0.9-0.2c-0.1-0.4-0.1-0.8-0.2-1.3c0.6-0.5,1.7-1.2,3.3-2c3.2-1.7,16.9-10,33-20c-1.2-2.1-2.5-4.1-3.7-6.2
			C592.8,150.3,591.1,151.1,589.8,151.7z"/>
		<path id="XMLID_230_" class="st2" d="M297.6,169.4v-3c-3.9,4.7-6.1,10.3-8.9,19.2c-4.5,14.1-10.1,12.9-10.1,12.9
			s24,11.9,34.6-10.3c3.4-7.2,4.4-12.3,4.6-16.1c-4.1-1.1-9.6-1.9-16.3-2.5L297.6,169.4z"/>
		<path id="XMLID_231_" class="st2" d="M228.8,258c-2-3.1-4.2-6.1-6.1-9.2c-1,2.9-1.8,5.8-2.5,8.5c1.4,4.2,2.8,8.4,3.8,11.4
			C225.4,265.6,227,262,228.8,258z"/>
		<path id="XMLID_232_" class="st2" d="M458.3,298.7c3.1,0.6,6,1.3,9,2c15.8,3.8,29.2,9,40.1,15.6c14.8-13.8,28.5-24.5,34.8-28.6
			c13-8.7,15.1-6.5,17-14.1c4.8-0.3,11.3-4.2,16.3-8.3c9.2-7.8,19.5-42.8,20.5-56c1-13.2-8.6-12.1-19-9.1c-3.4,1-6.1,2.9-8.1,5.2
			c-3.5,1.1-7.2,4.9-10.9,12.6c-3.1,6.6-5.2,14.9-6.5,21.5c0,0.2-0.1,0.4-0.1,0.5c-0.6,2.4-0.7,3.9-0.7,3.9
			c-0.3,1.5-0.5,2.8-0.6,3.8c-2.9,1.3-19,8.9-39.1,20.6c-10.5,10.5-25,19.6-43.5,27.1C464.3,296.5,461.3,297.6,458.3,298.7z"/>
		<path id="XMLID_233_" class="st2" d="M297.6,154.5V150h77.3v-31.9h27.5V150h37.3v-29.4c-2.2-2.6-5.7-4.5-10.5-5
			c-9.7-1-11.9-1.1-20.7-6.6c-8.8-5.5-34.4-12.1-49.3-4.6c-11.7,5.8-26.7,27.1-34.4,37.8c-5.2-0.7-14.2-3.4-27.5-12.7
			c-3.5-2.4-6.9-4-10.4-4.8c-7,7-13.7,14.5-20,22.4c0.5,0.4,0.9,0.8,1.4,1.3C280.5,160,287.5,159.5,297.6,154.5z"/>
	</g>
	<path id="XMLID_36_" class="st3" d="M292.5,93.4c0,0-10.4,4.3-34.9-11.7S210.5,91.8,204.1,99c0,0,11.7-6.9,25,5.3
		s20.5,10.9,30.9,4.5c10.4-6.4,32.5-4.5,32.5-4.5V93.4z"/>
	<path id="XMLID_238_" class="st4" d="M292.5,93.4c0,0-10.4,4.3-34.9-11.7S210.5,91.8,204.1,99c0,0,23.5-14.3,36.8-2s9.6,9.7,20,3.3
		c10.4-6.4,31.6,4.1,31.6,4.1V93.4z"/>
	<path id="XMLID_92_" class="st5" d="M437.4,455.9c0,0,22.2,0.8,23,16.9c0.8,16,10.7,67.5,12.3,75.7c1.6,8.2-16,22.8-35,8.2
		c-18.9-14.5-13.2-55.9-14-70.3C423,472,437.4,455.9,437.4,455.9z"/>
	<path id="XMLID_165_" class="st3" d="M437.4,455.9c0,0,21,22.3,21.8,38.3s11.9,46,13.6,54.2c1.6,8.2-16,22.8-35,8.2
		c-18.9-14.5-13.2-55.9-14-70.3C423,472,437.4,455.9,437.4,455.9z"/>
	<path id="XMLID_91_" class="st3" d="M548.9,161.6c0,0,2.9-14.6,14.4-18.7c11.5-4.1,22.2-6,22.2,9.3s-8.6,56.5-18.3,65.9
		c-9.7,9.5-25.8,18-25.3,0S548.9,161.6,548.9,161.6z"/>
	<path id="XMLID_90_" class="st6" d="M537,202.5c0,0,0.8-22.6,6.6-38.1c5.8-15.4,12.8-17.8,18.9-14.3s2.9,3.7,7.4-3.6
		c4.5-7.3,13.2-8.6,12.8,3.4c-0.4,12-6.6,37-9.5,51.8c-2.9,14.8-18.1,26.7-30,28.8C531.2,232.5,537,202.5,537,202.5z"/>
	<path id="XMLID_167_" class="st7" d="M537,202.5c0,0,0.8-22.6,6.6-38.1c5.8-15.4,12.8-17.8,18.9-14.3s2.9,3.7,7.4-3.6
		c4.5-7.3,13.2-8.6,12.8,3.4c-0.4,12-6.6,37-9.5,51.8c-2.9,14.8-16.7,13.1-28.6,15.1S537,202.5,537,202.5z"/>
	<path id="XMLID_166_" class="st8" d="M537.5,194.7c0,0,0.1-15.4,11.7-27.1c10.2-10.2,7.1-21,13.2-17.5s2.9,3.7,7.4-3.6
		c4.5-7.3,6.9,2.8,6.5,14.8c-0.4,12-0.3,25.6-3.2,40.4c-2.9,14.8-4.2-27.3-16.1-25.2C545.1,178.5,537.5,194.7,537.5,194.7z"/>
	<path id="XMLID_89_" class="st9" d="M439.9,431.6c0,0,4.1,31.7,12.5,36.2s6.4,56.4,14.2,72.8c7.8,16.5-3.3,24.3-11.1,16.9
		s-16.5,0-23.9-4.5c-7.4-4.5-7-20.6-7.8-33.7c-0.8-13.2-6.2-56.8-12.3-67.9C405.3,440.3,439.9,431.6,439.9,431.6z"/>
	<path id="XMLID_160_" class="st8" d="M439.9,431.6c0,0-0.1,36.3,8.4,40.8s5.2,46.9,13,63.3s0.6,22.7-7.2,15.3
		c-7.8-7.4-13.9,2.9-21.3-1.7c-7.4-4.5-8.1-17.1-8.9-30.2c-0.8-13.2-6.2-56.8-12.3-67.9C405.3,440.3,439.9,431.6,439.9,431.6z"/>
	<path id="XMLID_77_" class="st10" d="M496.6,127.7c0,0,8-15.2,12-23.4s10.8-5.7,14.5-7.3c3.7-1.5,6.2-4.6,12-2.5
		c5.9,2.2,9.6,22.5,10.8,27.3s0,13.4-4,18.4c-4,4.9-23.1,5.5-29.2,10.1c-6.1,4.6-18.6,13-17.7,10.6
		C496,158.4,496.6,127.7,496.6,127.7z"/>
	<path id="XMLID_144_" class="st11" d="M545.1,132.1c0,0,1.6,1.4-1.7,2.5s-8.4,1.9-12-3.3c-3.6-5.1-6.8-4.6-9.4-1.8
		c-2.6,2.9-4.9,12.3-5.8,13.7c-0.9,1.4-0.6,5.4-0.6,5.4s-1.9,1.2-2.9,2.1c-1,0.8-1.9-15,0-19.5c1.9-4.5,6.4-14.3,8-17.3
		c1.6-3,3.9-6,5.4-6c1.5,0,18,1.2,19.8,13.9S545.1,132.1,545.1,132.1z"/>
	<path id="XMLID_146_" class="st12" d="M492.5,127.6c0.9,0.3,6-3.3,9.2-9.5c3.2-6.2,6-14.2,8.8-16.5c2.8-2.3,1.4-2.8,5.6-3.4
		c4.3-0.5,5.9-0.8,5.9-0.8s3.8,9.6,0,19.2c-3.8,9.6-9.8,26.2-7.2,32.6l-9.9,8.1L492.5,127.6z"/>
	<path id="XMLID_93_" class="st13" d="M185.7,259.3c0,0,40.1,70.3,39.8,71.3s-1.9,10.8-9.6,4c-7.7-6.8-40.4-69.2-40.4-69.2
		L185.7,259.3z"/>
	<path id="XMLID_76_" class="st10" d="M219.9,258.4c0,0-34.6-5.2-40.1-4.3c-5.6,0.9-25.9,17.9-23.1,26.8c2.8,8.9,3.4,15.1,8.3,15.7
		c4.9,0.6,0.9,7.1,8.3,9.6s5,12,14.8,10.2s16.9-13.6,19.7-20.7c2.8-7.1,14.8-13.6,20.1-15.1C233.2,279.1,219.9,258.4,219.9,258.4z"
		/>
	<path id="XMLID_134_" class="st11" d="M170.4,279.5c0,0,2.5,16.5,12.9,18.7c10.3,2.2,8.3-4.7,6.7-7.9s-6.2-4.3-6.9-6.2
		c0,0,3.4,2.9,5.5,2s-2.6-1.9-2.6-3c0,0,4.6,2.6,8.2,0.6s5.8-2.6,8.9,1s4.8,5.4,6.7,3.6s5.2-4.1,5.2-4.1s2,2.4,0.4,3.2
		c-1.6,0.8-6.5,4.8-7.9,8.2s-5.7,13.1-9.5,15.7c-3.8,2.5-0.5-6-3.6-6.5s-8.1,1.3-11.4,1.3s-0.8-1.3-3.6-4.6s-9.4-6.4-9.6-6.4
		s2.6-0.9,0.4-5.8s-2.4-8.1-2.4-8.1S167.2,274,170.4,279.5z"/>
	<path id="XMLID_4_" class="st3" d="M297.5,101.7c0,0-17.3,2.7-28.2,11.3s-13.3,15.1-17,30.9c-3.7,15.8-9.6,14.8-9.6,14.8
		s25.6,11.8,35.1-13.4c9.5-25.1-4.3-26.4,12-34.3S297.5,101.7,297.5,101.7z"/>
	<path id="XMLID_237_" class="st4" d="M278.6,109.5c0,0,1.6-5.1-9.3,3.5s-13.3,15.1-17,30.9c-3.7,15.8-9.6,14.8-9.6,14.8
		s19,0.8,28.5-24.4c9.5-25.1-14.7-9.7,1.6-17.7C289,108.6,278.6,109.5,278.6,109.5z"/>
	<path id="XMLID_141_" class="st12" d="M224,251.3c0,0-1.7,7.4-6.1,6.8c-4.4-0.6-17.8-3.7-22.3-3c-4.5,0.7-5.6-0.7,6.2,2.2
		c11.8,2.8,10.6,10.8,7.3,14.2c-3.3,3.3-10.1,12.1-10.1,12.1l4.7,9.1c0,0,7.3-2.5,11.5-5.3s7-5.4,12.8-5.6
		C233.9,281.5,237.9,265.6,224,251.3z"/>
	<path id="XMLID_142_" class="st14" d="M223.1,270.7c-0.5,0.2-5.4,9-10.2,9.6c-4.8,0.5-11.4,5.5-12.5,5.2s-1.2,0-1.2,0l2.6,8.2
		c0,0,11.5-5.1,14.5-7.1c3-2,4.8-3.9,10.1-4.6C231.9,281.3,223.1,270.7,223.1,270.7z"/>
	<path id="XMLID_86_" class="st15" d="M400.7,292.6c0,0,51.8-37.3,81.4-58.6c29.6-21.3,55.5-35.2,55.5-35.2s14.8,0.6,13,20.7
		s-1.5,13-18.8,26.2c-17.3,13.3-86.4,78.7-88.2,125.6s1.2,61.7,3.7,68.5c2.5,6.8-0.3,11.4-11.4,23.4c-11.1,12-16.7,13.6-16.7,13.6
		s-31.2-38.9-45.3-75.6c-14.2-36.7-21.6-76.2-19.4-93.8S374.2,314.5,400.7,292.6z"/>
	<path id="XMLID_168_" class="st3" d="M400.7,292.6c0,0,51.8-37.3,81.4-58.6c29.6-21.3,55.5-35.2,55.5-35.2s14.8,0.6,13,20.7
		s-17.7,12.5-35,25.8c-17.3,13.3-81.1,71.3-82.9,118.2s2.5,69.2,4.9,76c2.5,6.8,9.3,11.7-1.8,23.7c-11.1,12-16.7,13.6-16.7,13.6
		s-31.2-38.9-45.3-75.6c-14.2-36.7-21.6-76.2-19.4-93.8S374.2,314.5,400.7,292.6z"/>
	<path id="XMLID_152_" class="st12" d="M430.1,295.5c0,0,13.5,14.3,24,10s33,18.8,34.8,30.3s-7.5,27.5-7.5,27.5s-3-48.3-24-46.8
		s-30.8-18.3-30.8-18.3s7.3,29.8,22,36.8s12,39.5,12,40.3s-8.2,11.3-8.2,11.3s3.7-43.3-16.3-53.8s-13.8-34.5-13.8-34.5
		s-29.5,33.3-66.8,21.3c0,0,63.8-30,77.3-47.5s18.7-17,18.7-17S447.6,281,430.1,295.5z"/>
	<path id="XMLID_88_" class="st3" d="M417.9,82.4c0,0-7.4-3.5-7.4-10.5c0-7-5-14.3-15.5-14.7c-10.5-0.4-12.8-0.4-22.5-5.8
		s-37.2-10.9-52.3-1.6c-15.1,9.3-34.1,46.9-37.6,50.8c-3.5,3.9,3.5,16.7,4.7,28.7s20.8,46.8,24.7,56.5c3.9,9.7,7.9,23.5,16.4,24.8
		c22.6,3.5-34.1,9.8-66.3,25s-42.9,14.9-44.1,17.6c-1.2,2.7,4.5,33.5,7.6,33.5c3.1,0,7.7-6,29.9-4.5s51.2,2.1,56.8,8.4
		c5.6,6.3,33.9,26.2,38.3,27.4c4.3,1.2,33.3,13.5,54.9-14.2c21.6-27.8,46.9-30.2,46.3-48.8c-0.6-18.5-1.2-42,8.6-54.9
		s37.6-36.4,47.5-41.3c9.9-4.9,3.1-3.8-3.1-22.9s-12.4-11.3-19.8-9.1c-7.4,2.3-33.1,9.8-42.1,16s-15.4,11.5-15.4,11.5
		s-0.6-15.8,0.4-25.5c1-9.7,2.5-19.1-1.6-25.7C422,96.4,418.1,86.1,417.9,82.4z"/>
	<path id="XMLID_158_" class="st16" d="M443.4,196.3c0,0,4.3,52.9-1.3,63c-5.7,10.1-12.4,17.7-16.5,22.8s12.1,6,9.3,8.8
		c-2.8,2.8,14.9-14.8,25.9-25.2c11-10.3,19.1-20.7,28.4-25.7c9.3-5,22.3-24,21-24.1c-1.3-0.1-59.5,43.3-59.5,43.3s0.2-10.6,0.6-21.2
		c0.5-10.6-3.3-20,2.7-31s31.3-34.9,31.3-34.9l26.3-16.2l-0.5-3.9l4.5-3.4c0,0-4.4-3.4-4-12s-8.6-5.3-8.6-5.3s6.9,16.7,2.9,20.7
		c-4,4-46,36-51.7,38.3C448.7,192.8,443.4,196.3,443.4,196.3z"/>
	<path id="XMLID_159_" class="st16" d="M419.7,90.5c0,0-2,8.8-5.4,11.2c-3.4,2.3-9,3.8-8.9,5.4s16.6-7.8,19.1-1.7
		c2.5,6.1-1.5,28.1-2,35c-0.5,6.9,1,21.9-6.1,26.7c-7.1,4.8,1.8,4.8-2.1,9.8c-4,5-1.9,7.1-5.4,19.3c-3.5,12.2-5.7,21.7-9.8,24.5
		c-4.2,2.9-15.4,13.3-25.8,9.9c-10.5-3.4,9.2,11.2,17.6,9.2s7-10,12.4-5.8s2.9,8,5.7,7.5c2.8-0.5,5.6-4,7.6-8.3
		c1.9-4.3-1.9-23.3,7.5-34.4c9.4-11.1-0.8-17.4,13.9-28.4c14.8-11,12-17.2,17-22.5s-12.8,3.1-17,3.9s-10.6,2.3-10.6,2.3
		s-1.5-18.1,0-27.5s2.9-17.9-1.2-23.7C422,97.2,419.7,90.5,419.7,90.5z"/>
	<path id="XMLID_149_" class="st17" d="M426,157.3c0,0,19.7-6.1,29.2-12c9.5-5.9,18.9-8.8,28.4-11.7c9.5-2.9,14.5-4.1,18.4,4.1
		c3.9,8.2,12.5,16.7,5.6,16.3c-6.9-0.3-22.4-5.1-30.4,3.2c-8,8.3-16,14.9-17.2,11c-1.2-3.9-5.5-4.1-7.6,5.3s0.3,39-1.4,39.5
		s-9.7-29.1-25.1-26.7c-15.4,2.4-11.8-3.9-10-10.5S426,157.3,426,157.3z"/>
	<path id="XMLID_151_" class="st12" d="M415.9,192.2c0,0-2.5,22,0,30c2.5,8-4,30-6.3,38s-26.5,0.3-36.8-11.8s-28.4-26.5-32.3-30.8
		c-3.9-4.2-7.8-6.4-8.1-6.6c-0.3-0.2-6.9-10.2,2.1-10.9S415.9,192.2,415.9,192.2z"/>
	<path id="XMLID_87_" class="st18" d="M283.1,104.3c0,0,24.6,69.1,23.4,82.9c-1.2,13.8,6.1,13.6,24.5,23.2s39.6,27.4,59.7,15.7
		s31.6-27.6,29.5-37.5s4.5-12.5,6.8-18.7c2.3-6.2,0.8-38.6,0-46c-0.8-7.4-1.2-29.8-17.6-50.6c-15.8-20-32.5-17-49.6-19.7
		c-17.1-2.8-52,18.5-59.4,29S291.5,83.2,283.1,104.3z"/>
	<path id="XMLID_85_" class="st19" d="M292.7,132.2c0,0,17-35.2,34.2-50.6s32.7-23.1,46.9-22.2c14.2,0.9,20.4,0,27.5,7.7
		s9.4,18.6,15.4,24.1c6,5.5,12.6,15.7,9.6,25.3c0,0-6.8,32.1-3.4,42.6s-9,25.6-35.7,25.3s-55.3-10.2-70.4-20.1
		C301.7,154.4,290.9,144.5,292.7,132.2z"/>
	<path id="XMLID_84_" class="st20" d="M302.9,141.1c0.6-1.2,9.9-25.3,36.7-24.1s40.1,6.8,53.7-1.9c13.6-8.6,35.5-17.3,32.4-4.3
		s-2.8,29.3-5.2,36.7s-8.3,16-26.8,19.1c-18.5,3.1-29.2,11.1-35.5,11.7S316.8,162.7,310,155C303.2,147.3,302.9,141.1,302.9,141.1z"
		/>
	<path id="XMLID_153_" class="st21" d="M304.6,143.3c0.6-1.2,9-26.5,35.9-25.3s38.4,7.4,52-1.2s35.8-16.8,32.7-3.9
		c-3.1,13-2.3,27.2-4.8,34.6s-6.9,10.7-25.4,13.8c-18.5,3.1-30.1,13.7-36.4,14.3c-6.3,0.6-39.6-12.7-46.4-20.4
		C305.5,147.6,304.6,143.3,304.6,143.3z"/>
	<path id="XMLID_147_" class="st22" d="M307.6,140.8c0.6-1.2,7.9-22.7,34.8-21.5c26.8,1.2,36.9,7.5,50.5-1.2s33.8-17.4,30.8-4.5
		s-0.7,26.6-3.2,34s-5.1,8.5-23.6,11.6c-18.5,3.1-32.4,14.6-38.7,15.3c-6.3,0.6-35.6-10.8-42.4-18.5
		C308.9,148.3,307.6,140.8,307.6,140.8z"/>
	<path id="XMLID_236_" class="st10" d="M307.6,140.8c0.6-1.2,7.9-22.7,34.8-21.5c26.8,1.2,36.9,7.5,50.5-1.2s17.1-9.2,14.1,3.7
		s8.5,17.9,6,25.3c-2.5,7.4,2.3,9-16.2,12.1c-18.5,3.1-32.4,14.6-38.7,15.3c-6.3,0.6-35.6-10.8-42.4-18.5
		C308.9,148.3,307.6,140.8,307.6,140.8z"/>
	<path id="XMLID_154_" class="st21" d="M344.4,129.1c0,0,17.1,3.2,21.4,9.2s5.9,6.7,9.1,5.6c3.2-1.1-0.9,3.5-3.1,4.9s-5.9,6.3-9.6,9
		c-3.7,2.7-11.4,6.6-11.4,6.6s2.9-15.3-1.8-17.7c-4.7-2.4-10.8,0-13,0c-2.2,0,10.8-3.2,10.2-8.7c-0.6-5.5-8.8-6.5-10.4-6.4
		C334.2,131.8,344.4,129.1,344.4,129.1z"/>
	<path id="XMLID_83_" class="st23" d="M380.5,139.6c0,0-3.6,6.9-8.6,5.6c-5-1.3-12-14.3-26.3-12.4c-14.3,1.9-19.2,5.3-21,6.2
		c-1.7,0.9-5.8-2-7-6.4c0,0,1.5,1.4,3.9,0c0,0-2-0.5-2.3-2.7c0,0,2,1.5,5.8-2.1s9.2-3.8,10.6-2.9c0,0-1.5-1.4-2.8-1.4
		s4.5-2.9,9.3-2.3c4.7,0.6,4.2,3,5,3.5c0.8,0.5-1.1-4.3-1.6-5.2s4.3,2.7,8.2,2.4c3.9-0.2,5.6,1.4,9.3,4.4c3.7,3,8.7,6.5,9.9,9.2
		c1.1,2.7,2,3.4,3.2,1.7c1.2-1.6-1.6,4.8-2.4,5.1c-0.7,0.3,3.7-0.6,4.8-2.6c1.1-2-2.6,3.7-2.6,3.7S378.7,142.1,380.5,139.6z"/>
	<path id="XMLID_156_" class="st21" d="M418.2,121c0,0-5.6,5.7-1.9,8.2c3.7,2.5,5.3,3.8,3,9.2s-2.5,10-7,12.1
		c-4.4,2.1-9.3,2.1-11.3,0.5c-2-1.6-3.8,0-3.9-5s-1.8-7.8,1.3-11s6-4.7,8.7-7.8c2.7-3.1,4.5-5.5,6.2-6.3
		C414.9,120.2,418.2,121,418.2,121z"/>
	<path id="XMLID_82_" class="st23" d="M390.8,132.3c0,0,3.2,2,6.8-0.9c3.6-3,3.8-3.6,3.8-3.6s-0.3,2.6-1.2,3.2s1.5-0.5,3.9-4.8
		c2.4-4.3,7.8-10.6,10.9-12s5.8-1.2,3.9-0.5c-1.9,0.7-1.9,2.2-1.9,2.2s4.9-1.7,5.3,2.5c0.4,4.2-2.1,3.7-4.7,4.9
		c-2.7,1.2-12.1,9.7-14,12.7c-1.9,3-7.4,5.3-9.6,4.1c-2.2-1.2-2.7-4.3-2.7-4.3s1.3,1.6,2.4,0.6S390.1,136.7,390.8,132.3z"/>
	<path id="XMLID_81_" class="st24" d="M369.7,150.3c0,0-10.4-3.5-18.6-7.1c-8.2-3.6-22.7,5.9-25.8,11c0,0,8.3,13.9,20.7,11.2
		C358.3,162.7,363.6,157.2,369.7,150.3z"/>
	<path id="XMLID_80_" class="st25" d="M368.9,150.1c0,0-7.9-1.8-16.1-5.4c-8.2-3.6-21.4,5.3-24.5,10.5c0,0,5.9,11.5,18.2,8.8
		C358.8,161.4,362.7,157,368.9,150.1z"/>
	<path id="XMLID_79_" class="st24" d="M396.8,146.9c0,0,4.3-3,8.8-10.1c3.1-4.9,11.6-7,14.6-2.9c0,0-0.9,12.3-10.4,16.7
		C403.2,153.7,400.2,151.2,396.8,146.9z"/>
	<path id="XMLID_78_" class="st25" d="M397.7,146.9c0,0,2.3-1,7-8c4.7-6.9,13.5-5.2,15-4.8c0,0-3.2,14-10.1,16.7
		S401.1,151.1,397.7,146.9z"/>
	<path id="XMLID_74_" class="st13" d="M654.4,38.4c0,0-96.2,71.1-105.8,77c-9.7,5.9-0.4,4.2,6.1,2.2c6.6-2,29.7-14.9,29.7-14.9
		s9.8-4-8.3,9.1c-18.1,13.1-37.7,34.7-48.3,11.9s-12.4-26.9,16.9-46.2c29.3-19.3,32.8-15.9,29.4-12.6c-3.4,3.3-33.8,24.3-34.6,33.1
		c-0.8,8.8,17.8-3.1,34.2-11.3S659.4,28.7,654.4,38.4z"/>
	<path id="XMLID_148_" class="st26" d="M644.9,44.8c0,0-88.8,60.1-98.5,66s-4.1,13.1,2.5,11c6.6-2,35.5-19.2,35.5-19.2
		s9.8-4-8.3,9.1c-18.1,13.1-35.5,33.1-46,10.3s-12.9-23.3,16.4-42.6s31.1-18,27.6-14.7c-3.4,3.3-40.6,22.3-38.5,37.9
		c1.2,8.7,21.2-4.7,37.6-13S649.9,35.1,644.9,44.8z"/>
	<g id="XMLID_57_">
		<defs>
			<path id="XMLID_59_" d="M368.9,150.1c0,0-7.9-1.8-16.1-5.4c-8.2-3.6-21.4,5.3-24.5,10.5c0,0,5.9,11.5,18.2,8.8
				C358.8,161.4,362.7,157,368.9,150.1z"/>
		</defs>
		<clipPath id="XMLID_6_">
			<use xlink:href="#XMLID_59_"  style="overflow:visible;"/>
		</clipPath>
		<g id="XMLID_61_" class="st27">
			<ellipse id="XMLID_73_" class="st28" cx="345.3" cy="150.1" rx="12.5" ry="12.3"/>
			<path id="XMLID_72_" class="st25" d="M334.9,150.1c-2.2,1.8,4.4,10.8,10.4,10.8s10.9-6.1,10.9-12
				C356.3,148.8,348,139.3,334.9,150.1z"/>
			<ellipse id="XMLID_62_" class="st28" cx="345.3" cy="150.1" rx="8.7" ry="8.6"/>
		</g>
	</g>
	<g id="XMLID_37_">
		<defs>
			<path id="XMLID_38_" d="M397.7,146.9c0,0,2.3-1,7-8c4.7-6.9,13.5-5.2,15-4.8c0,0-3.2,14-10.1,16.7S401.1,151.1,397.7,146.9z"/>
		</defs>
		<clipPath id="XMLID_7_">
			<use xlink:href="#XMLID_38_"  style="overflow:visible;"/>
		</clipPath>
		<g id="XMLID_40_" class="st29">
			<path id="XMLID_56_" class="st28" d="M417.5,135.3c0,6.2-3.4,12.5-7.9,14.1c-4.7,1.7-8.6-2.3-8.6-9.1c0-6.8,4-13.2,8.6-14.3
				C414,124.9,417.5,129.1,417.5,135.3z"/>
			<path id="XMLID_55_" class="st25" d="M402.5,139.9c-1.6,2.3,3.1,9.6,7.2,8.1c3.9-1.4,6.9-8.1,6.9-13.5
				C416.5,134.4,411.4,126.9,402.5,139.9z"/>
			<path id="XMLID_54_" class="st28" d="M415.2,136c0,4.4-2.5,8.8-5.6,9.9c-3.2,1.1-5.9-1.7-5.9-6.4s2.7-9.2,5.9-10
				C412.7,128.7,415.2,131.6,415.2,136z"/>
		</g>
	</g>
	<path id="XMLID_102_" class="st30" d="M366.6,69.5c0,0-3.8,2.8-10.9,8.8c-7.1,6,14.7,2.3,19.4,2.3s0.3,2,13,7.5s16,5.8,16,5.8
		s-14,9.1-19.8,10.5s21.9-4.8,24.3-4.6c2.4,0.3-21.3,15.5-34.1,13.9s-45-7.1-54.3,2.1s-17.7,17.6-17.5,15.8
		c0.2-1.8,6.7-15.8,17.2-30.9S331.9,80,346.4,72S354.6,73.7,366.6,69.5z"/>
	<path id="XMLID_128_" class="st17" d="M302,100.2c0,0,11.5-18,18.3-22.3s19.9-9,22.4-11.1s-16.3,13-19,15.5s3.1,2.3,10-2.9
		s11.9-9.4,17.7-9.9c5.7-0.5,8.6,2.5,9.3,2S348.9,84,334.4,89.5s-22.4,9.4-25.8,14.8s-11.2,17.2-12.4,21.2c-1.3,4-3.5,1.2-1-7.4
		S302,100.2,302,100.2z"/>
	<path id="XMLID_129_" class="st31" d="M323,170.4c0,0,36,22,52.7,19.7c16.7-2.3,20.6,2,30.8-4s2.5,7-17.2,6.7s-21.3,8-10.7,12.7
		c10.7,4.7-2.4,7.7,1.8,11.3c4.2,3.7-0.5,8.1-7.2,3.4c-6.7-4.7-36.3-15.7-43.3-19c-7-3.3,0.7-5.7,2.3-8.3s-4.1-4.9-7.1-8.5
		c-2.9-3.5,4.3-1.8,2-5.8C325,174.5,319.8,175,323,170.4z"/>
	<path id="XMLID_127_" class="st17" d="M317.6,163.2c0,0,26.8,18.3,48.9,17.5c22.1-0.8,26.3,5.8,35.9,1.9c9.7-3.9,9.7-3.9,9.7-3.9
		s-6,13.8-20,10.8c-14-3-21.2,2.6-14,3c7.2,0.4-4.6,5.5-13.3,2.8c-8.7-2.8-35.6-14.9-39.5-20C321.4,170.2,311.6,162.1,317.6,163.2z"
		/>
	<path id="XMLID_131_" class="st31" d="M336,216.5c0,0,8.3,4.3,11.1,10.3c2.8,6,1,9-19,8s-35.8-1.3-52.5,10
		C258.8,256,259.3,262,250,265c-9.3,3-21.5,8.8-21.8,9.5s-8.3-15-7.8-18.9c0.5-3.9,18.3-3.1,31.3-10.1c13-7,30.2-14.9,44-18.7
		C309.5,223,329.1,214,336,216.5z"/>
	<path id="XMLID_130_" class="st13" d="M190.8,286.1c0,0,7.5-0.8,8.3-2.6l8.6,14.6c0,0-4.2,11.4-5.8,12c-1.6,0.6-1.9,0-1.9,0
		l-0.4-0.8c0,0,4.1-4.6,0.9-7.6s-6.7-1.9-6.7-1.9s5-6,3.8-9.1c-1.3-3.1-5.5-2.6-6.3-3.3C190.4,286.7,187,286.7,190.8,286.1z"/>
	<path id="XMLID_136_" class="st32" d="M170.2,283.1c0,0,4.8,14.4,12.8,16.8c7.9,2.3,11.5-2.7,9.8-6.6c-1.6-3.9-3.7-5.9-3.7-5.9
		s5.3,3.7,4.4,8.1c-0.9,4.4-1.8,5.5-5.5,5.5c-3.7,0-7.7,0.5-11.8-5.5S170.2,283.1,170.2,283.1z"/>
	<path id="XMLID_137_" class="st32" d="M170.7,295.5c0,0,4.5-1.1,5.8,0.5l-1-1.8l-1.1-1.5C174.3,292.6,174.3,294.9,170.7,295.5z"/>
	<path id="XMLID_138_" class="st32" d="M185.1,301c0,0-1.9,3.3-5.2,4.1c0,0,3-0.4,8.8-4.1H185.1z"/>
	<path id="XMLID_135_" class="st32" d="M196,289c0,0,1.3,4.3-0.5,6.9c-1.8,2.6-4.1,4.2-4.1,4.2l-2.8,0.8l-2.2,1.4c0,0,4.3,0,7.8-3.1
		C197.8,296.2,199,290.9,196,289z"/>
	<path id="XMLID_140_" class="st32" d="M190,301c0,0,6.3-2.2,9.3,1c3,3.2-0.8,7.5-1.9,7.5c-1.1,0-4.5-3.3-4.5-3.3s2.7,5,3.4,5.3
		c0.8,0.4-3.3,3.3-4.5,3.8s7.8-3.6,9.4-8.3C202.6,302.3,199.1,297.1,190,301z"/>
	<path id="XMLID_239_" class="st11" d="M196.8,251.3c0,0,1.6,4,0,7c-1.6,3-16,17.6-19.3,19.1c-3.3,1.5-6.8,4.2-8.3,4.3
		c-1.5,0.1-4.1,4.1-7.5-1.8c-3.4-5.9,11.5-11.6,16.5-15.7C183.2,260.1,196.8,251.3,196.8,251.3z"/>
	<path id="XMLID_75_" class="st13" d="M132.9,158.7c0,0,49.3,77.7,52.8,86.1c2.2,5.3,8.1,1,5.8-5c-3.3-8.5-10.7-29.5-10.7-29.5
		s-1.9-9.3,7.1,5.6c8.9,14.8,25.8,27.8,1.5,48.7s-28.6,24.7-41.3,0c-12.6-24.7-8.6-29.9-6.2-27.5c2.5,2.5,16.6,27.7,24.9,25
		s-0.7-19.1-7-33.2C151.7,210.9,124.6,157.1,132.9,158.7z"/>
	<path id="XMLID_132_" class="st26" d="M136.6,168.7c0,0,24.5,57.5,33,67.5s9.4,20,5.8,24.3c-3.6,4.3-10.8,14.3-21.1,0
		S141.6,240,141.6,240s18.3,31.5,27.5,20.8s-1-14.1-12.1-37.8S129.5,161.6,136.6,168.7z"/>
	<path id="XMLID_133_" class="st26" d="M136.8,172.3c0,0,24.8,54.9,27,59.4s13.3,18.1,11.7,24.3c-1.6,6.3-9.8,15.7-16.8,6.8
		c-7.1-8.9-17.8-25.5-18-22.6s13.4,36.7,21.5,38s16.6-4.2,24-11s15.7-13.7,14.8-22.8c-0.9-9.1-18.8-37.1-18.8-34.6
		s7.6,18.5,9.3,24.1s2.6,10.2-1.2,12.6c-3.9,2.3-4.2,1.2-8-6.7c-3.8-7.9-47.3-76.4-47.3-76.4S131.9,161.5,136.8,172.3z"/>
	<path id="XMLID_143_" class="st33" d="M223.6,326.8c0,0-0.5,6.5-3.1,7c-2.6,0.5-5.7-0.4-5.7-0.4s-2.4,3.1,4.1,6.3
		s10.7-1.8,10.4-6.8S226.4,326.8,223.6,326.8z"/>
	<path id="XMLID_145_" class="st34" d="M223.4,327.9c0,0.1,3.7,1.6,3.7,5.3c0,3.7-1.8,5.6-3.3,6s-5,0.6-5,0.6s4.5,2,7.4,0
		s3.7-6.4,2.3-10c-1.4-3.7-4.9-3-4.9-3L223.4,327.9z"/>
	<path id="XMLID_139_" class="st35" d="M225.5,328.2c0,0,0.5,5.9-3.7,6.3c-4.3,0.4-6.3-0.7-5.9,0.9c0.4,1.6,5,3.5,6.5,2.8
		c1.5-0.7,4.8-2.8,4.2-3.7c-0.6-0.8-0.2-1.8,0.4-3.3C227.5,329.7,226.5,327,225.5,328.2z"/>
	<path id="XMLID_150_" class="st26" d="M537.4,112.4c0,0,29.9-17.1,44.1-27.1c14.2-10,38.9-24,38.9-24s-43.5,32.2-61.3,43.8
		s-19.4,13.7-12.6,14.3c6.7,0.6,10.5-1.3,10.5-1.3s-9.9,11.1-15.1,5.9C536.7,118.9,533.1,119.7,537.4,112.4z"/>
	<path id="XMLID_155_" class="st36" d="M344.3,145.3c0,0-0.1,10-4.6,10.7c-4.6,0.7-5.3-4.9-5-6.8C334.7,149.1,338,146.1,344.3,145.3
		z"/>
	<path id="XMLID_157_" class="st36" d="M407.6,137.1c0,0-2.1,6.6-0.5,8.8c1.6,2.2-2.2,3-3,0c-0.9-3-1.6-3.4,1-6.1
		C407.6,137.1,407.8,136.1,407.6,137.1z"/>
	<path id="XMLID_161_" class="st12" d="M567.7,150.7c0,0-4.6-1.6-6.6,6.6s-22.8,24.8-23.1,33.2s-0.2,1.8-0.2,1.8
		s22.2-35.4,25.9-23.4s11.4,23.4,11.4,23.4s3.6,2.4-1.4-9C568.7,171.8,562.9,165.2,567.7,150.7z"/>
	<path id="XMLID_162_" class="st12" d="M459.4,496c0,0-8.3,17.5-17.3,27.8c-9,10.3-18.9-12-18.9-12s-2.1,5.7,4.2,13
		c6.3,7.3,20.7,29.7,23,32c2.3,2.3,4.7,0-0.7-9.7c-5.3-9.7-5.7-22,0-30C455.4,509.1,465.4,504.5,459.4,496z"/>
	<path id="XMLID_163_" class="st17" d="M390.9,373.5c0,0,26.1-9,25.6,13c-0.6,22-4.1,18.5-9.6,19.5s8.2,10.5,12.8-2
		c4.7-12.5-2,22,5.1,34.5s11.9,17,3.5,23s-11.8,5.7-11.8,5.7S382.4,417,381.9,411s13,4,10-2s-10,0.5-14-13.5s-13.4-66.6-7.7-62.3
		C375.9,337.5,369.1,371.8,390.9,373.5z"/>
	<path id="XMLID_164_" class="st17" d="M375.4,364.5c0,0,15.5,20.3,27.8,16.3c12.3-4,12.7,15.2,5.8,20.2c-6.8,5-4.2,14.3,0.3,16.5
		c4.5,2.2,6.8,11.3,8.7,22.2c1.8,10.8,4.8,18.6,4.3,19.5c-0.5,0.8-0.7,6.8-17.5-14.5c-16.8-21.3-21.3-26.8-20.8-37.3
		s-16-37.8-15.7-46.8C368.7,351.5,369.7,354.6,375.4,364.5z"/>
	<g id="XMLID_191_">
		<defs>
			<path id="XMLID_170_" d="M467.2,300.7c-2.9-0.7-5.9-1.4-9-2c3.1-1.1,6.1-2.2,9-3.4c20.1-8.2,35.4-18.1,46.1-29.8
				c12.2-13.4,18.3-29,18.3-46.8c0-23-7.5-40.2-22.5-51.6c-10.4-7.9-24.3-13.1-41.9-15.5v-33.5h-27.5V150h-37.3v-31.9h-27.5V150
				h-77.3v19.4l4,0.2c14.2,1.1,22.7,3.5,25.4,7.3c2.7,3.7,4.1,14.9,4.1,33.5v188.4c0,18.6-1.4,29.8-4.2,33.6
				c-2.8,3.8-11.2,6.2-25.3,7.2l-4,0.2v19.4h77.3v25.6h27.5v-25.6h37.3v25.6h27.5v-26.9c22-2.5,39.3-8.5,51.8-18
				c17-12.9,25.5-32.1,25.5-57.8c0-22-7.2-40-21.5-53.9C510.2,315.7,491.6,306.6,467.2,300.7z M402.4,170.4h3.4
				c13.5,0,24.8,2.1,33.9,6.2c4.8,2.2,8.9,4.9,12.5,8.2c8.6,8,13.6,19.4,15,34.1v19.2c-1.4,15.9-6.4,28.1-15,36.8
				c-3.5,3.6-7.7,6.5-12.5,8.9c-9.1,4.5-20.5,6.7-34.1,6.7h-3.2V170.4z M467.2,415.7c-1.2,1.5-2.4,3-3.7,4.4
				c-6.5,6.9-14.5,11.5-23.8,13.9c-5,1.3-10.3,1.9-16.1,1.9c-9.5,0-16.6-1.2-21.1-3.7V311h3.4c12.7,0,24,2.2,33.9,6.4
				c6.9,3,13.1,7,18.7,12.1c3.4,3.1,6.3,6.4,8.8,10c7.5,10.7,11.3,23.5,11.3,38.6C478.5,393.2,474.7,405.7,467.2,415.7z"/>
		</defs>
		<defs>
			<path id="XMLID_169_" d="M458.4,329.5c-5.5-5.1-11.8-9.1-18.7-12.1c-9.9-4.3-21.2-6.4-33.9-6.4h-3.4v121.2
				c4.6,2.5,11.6,3.7,21.1,3.7c5.8,0,11.1-0.7,16.1-1.9c9.3-2.4,17.2-7,23.8-13.9c1.3-1.4,2.6-2.9,3.7-4.4
				c7.5-10,11.3-22.5,11.3-37.6c0-15-3.8-27.9-11.3-38.6C464.7,335.9,461.7,332.6,458.4,329.5z"/>
		</defs>
		<defs>
			<path id="XMLID_121_" d="M439.7,283.8c4.8-2.3,9-5.3,12.5-8.9c8.6-8.7,13.6-20.9,15-36.8V219c-1.4-14.7-6.4-26.1-15-34.1
				c-3.5-3.3-7.7-6-12.5-8.2c-9.1-4.1-20.4-6.2-33.9-6.2h-3.4v120.1h3.2C419.2,290.6,430.6,288.3,439.7,283.8z"/>
		</defs>
		<defs>
			<path id="XMLID_109_" d="M603.3,376.6c0-5.3,11.3-30.5,10.9-42.1s-19.2,50-13.2,25.2c6-24.8,13.5-80.1,13.5-80.1s-6.8,61.3,0,38
				c6.8-23.3,3.4-37.6,4.9-57.6s-0.4,53.4,4.5,35.5c1.9-6.9,3.9-21.6,5.6-36.9c-8.3-120.6-99.1-208.1-209.9-198.3
				c-85,7.6-158.3,70.4-191.5,154.4c6.8-10.6,14.7-21.7,20.6-26.2c0,0-29.5,56.8-31.1,82.2c-1.6,25.4,17.2-33.6,31.1-52.8
				c12.8-17.7-27.8,71-23,125.8c1.4,7.9,2.4,13.7,2.4,13.7c-1.2-4.2-2-8.8-2.4-13.7c-2.9-16.6-7.6-42.6-8.1-45.5
				c-0.4-2.2-4.5,9-8.5,22.6c3.1,126.6,96.1,220.1,210.5,209.9c95.8-8.5,176.7-87.2,202.2-187.4
				C619.6,335.2,603.3,381.1,603.3,376.6z M519,439.8c-12.6,9.5-29.9,15.5-51.8,18v26.9h-27.5v-25.6h-37.3v25.6h-27.5v-25.6h-77.3
				v-19.4l4-0.2c14.1-1,22.5-3.4,25.3-7.2c2.8-3.8,4.2-15,4.2-33.6V210.3c0-18.6-1.4-29.7-4.1-33.5c-2.7-3.7-11.2-6.2-25.4-7.3
				l-4-0.2V150h77.3v-31.9h27.5V150h37.3v-31.9h27.5v33.5c17.6,2.4,31.5,7.6,41.9,15.5c15,11.4,22.5,28.6,22.5,51.6
				c0,17.8-6.1,33.4-18.3,46.8c-10.7,11.7-26,21.6-46.1,29.8c-2.9,1.2-5.9,2.3-9,3.4c3.1,0.6,6,1.3,9,2c24.4,5.9,43,15,55.8,27.5
				c14.3,13.9,21.5,31.9,21.5,53.9C544.5,407.7,536,426.9,519,439.8z"/>
		</defs>
		<clipPath id="XMLID_8_">
			<use xlink:href="#XMLID_170_"  style="overflow:visible;"/>
		</clipPath>
		<clipPath id="XMLID_9_" class="st37">
			<use xlink:href="#XMLID_169_"  style="overflow:visible;"/>
		</clipPath>
		<clipPath id="XMLID_10_" class="st38">
			<use xlink:href="#XMLID_121_"  style="overflow:visible;"/>
		</clipPath>
		<clipPath id="XMLID_11_" class="st39">
			<use xlink:href="#XMLID_109_"  style="overflow:visible;"/>
		</clipPath>
	</g>
	<path id="XMLID_108_" class="st31" d="M355.7,240.3c0,0,11.8,15.7,26.8,20.2s17.5,5.5,10.8,4.7s-11.5,0.7-1.3,3.7
		c10.2,3,19,4.3,19,4.3s-11,5.2-20,2.5s-3,4.7,8,6.5s-6,3.3-14.3,0c-8.3-3.3-16.5-6.7-24.2-16.7c-7.7-10,1.2,0.7,3.2-0.2
		c2-0.8-6.3-9.3-8.1-13.8s6.9,8.2,6.6,4C361.9,251.3,353.6,244.3,355.7,240.3z"/>
	<g id="XMLID_215_">
		<defs>
			<path id="XMLID_214_" d="M380.5,139.6c0,0-3.6,6.9-8.6,5.6c-5-1.3-12-14.3-26.3-12.4c-14.3,1.9-19.2,5.3-21,6.2
				c-1.7,0.9-5.8-2-7-6.4c0,0,1.5,1.4,3.9,0c0,0-2-0.5-2.3-2.7c0,0,2,1.5,5.8-2.1s9.2-3.8,10.6-2.9c0,0-1.5-1.4-2.8-1.4
				s4.5-2.9,9.3-2.3c4.7,0.6,4.2,3,5,3.5c0.8,0.5-1.1-4.3-1.6-5.2s4.3,2.7,8.2,2.4c3.9-0.2,5.6,1.4,9.3,4.4c3.7,3,8.7,6.5,9.9,9.2
				c1.1,2.7,2,3.4,3.2,1.7c1.2-1.6-1.6,4.8-2.4,5.1c-0.7,0.3,3.7-0.6,4.8-2.6c1.1-2-2.6,3.7-2.6,3.7S378.7,142.1,380.5,139.6z"/>
		</defs>
		<clipPath id="XMLID_12_">
			<use xlink:href="#XMLID_214_"  style="overflow:visible;"/>
		</clipPath>
		<g id="XMLID_213_" class="st40">
			<path id="XMLID_189_" class="st41" d="M373.8,125.9c0,0-3.7,8.8-10.3,4.4c-6.7-4.4-9.1-6.9-9.7-4.4s0.7,1.8-4.3,0.8
				s-5.4-0.5-8.3,0.2s-2.2,0.7-7.4,1.1c-5.2,0.4-4.6,1-10.7,4.2c-6.1,3.2-8.7,4.1-9.4,5.5c-0.8,1.3,27.1-4.1,35.2-1.2
				s15.7,9.1,20.4,10.3c4.6,1.3,3.7,2.4,8.4-1.2c4.7-3.6,6.4-5,5.9-9.1C383,132.4,373.8,125.9,373.8,125.9z"/>
			<path id="XMLID_194_" class="st42" d="M375.5,131.8c0,0,2.4,8-7.4,4.6s-8.3-3.2-12.4-4.6c-4.1-1.5-6.4,0-8.2-0.9s-4.4-0.9-8.1,0
				s-1,1.1-5.6,2.1c-4.6,0.9-7.8,1.7-8.5,3.9s-4.3,5.9-2.9,5.6c1.3-0.3,33.9-3.3,42.8,3c9,6.3,13.4,0.8,14.6-4.5
				C380.9,135.4,375.5,131.8,375.5,131.8z"/>
		</g>
	</g>
	<g id="XMLID_235_">
		<defs>
			<path id="XMLID_234_" d="M390.8,132.3c0,0,3.2,2,6.8-0.9c3.6-3,3.8-3.6,3.8-3.6s-0.3,2.6-1.2,3.2s1.5-0.5,3.9-4.8
				c2.4-4.3,7.8-10.6,10.9-12s5.8-1.2,3.9-0.5c-1.9,0.7-1.9,2.2-1.9,2.2s4.9-1.7,5.3,2.5c0.4,4.2-2.1,3.7-4.7,4.9
				c-2.7,1.2-12.1,9.7-14,12.7c-1.9,3-7.4,5.3-9.6,4.1c-2.2-1.2-2.7-4.3-2.7-4.3s1.3,1.6,2.4,0.6S390.1,136.7,390.8,132.3z"/>
		</defs>
		<clipPath id="XMLID_13_">
			<use xlink:href="#XMLID_234_"  style="overflow:visible;"/>
		</clipPath>
		<g id="XMLID_220_" class="st43">
			<path id="XMLID_217_" class="st41" d="M405.4,121.8c0,0,10.3-6.5,9.9-3.7c-0.4,2.8-7.2,5.4-8.8,6c-1.6,0.6-5.6,0.9-6.4,1.1
				s-0.4,0.6-1.1,3.1c-0.7,2.5-1.7,4.9-2.5,6.2c-0.8,1.3-3.3,2.6-4.7,2.8s-4.9,1.9,0.6,3.5c5.5,1.7,7.6,1.5,11.6-2.8
				c4-4.3,5.7-7.4,10.3-10.1c4.6-2.7,6-1.9,7.9-5s3.4-3.2,0.7-8.2c-2.7-5-4-6.9-6.9-4.5c-2.8,2.4-7.5,6.1-7.5,6.1L405.4,121.8z"/>
			<path id="XMLID_219_" class="st42" d="M417.8,116.5c0,0-2.2,5.8-7.1,8.2c-5,2.4-6.9,4.4-9,6c-2.2,1.7-1.5,1.3-3.1,3.4
				c-1.6,2.2-1.7,2.6-4.9,4.2c-3.2,1.6-6.9,3.5-1.6,3c5.3-0.4,10-1.6,14.9-6.7c4.9-5.1,15.6-9,16-12.9
				C423.3,117.9,423.7,111.5,417.8,116.5z"/>
		</g>
	</g>
	<path id="XMLID_240_" class="st31" d="M343.7,222.2c0,0,8.7,5.4,17.3,15.9c8.6,10.5,12.6,20.3,28.6,25.4c16,5.1,19.5,2.8,19.5,2.8
		s0.2,8.1-2.7,16.2c-2.9,8.1-7.8,13.2-11.6,6.5s-7.4-15.9-21.7-25.5c-14.3-9.6-24.8-21-39.9-25.6s-17.7-11.6-23.3-11.6
		s-3.1-1.5,9-4.8C331,218.1,334.8,215.2,343.7,222.2z"/>
</g>
<g id="XMLID_3_">
	<path id="XMLID_2_" class="st44" d="M390.7,103.6c0.2,6-4.3,11.4-10,12.1c-5.7,0.7-10.6-3.6-10.8-9.5c-0.2-6,4.3-11.4,10-12.1
		S390.4,97.6,390.7,103.6z"/>
	<path id="XMLID_1_" class="st25" d="M390.1,103c0.5,6-3.7,11.4-9.5,12.1c-5.7,0.7-10.8-3.5-11.3-9.5c-0.5-6,3.7-11.4,9.5-12.1
		C384.5,92.7,389.6,97,390.1,103z"/>
	<path id="XMLID_246_" class="st8" d="M385.3,104.6c-0.6-0.5-1.6-0.9-2.7-1c-0.1,0-0.3,0-0.4,0c0.1-0.1,0.3-0.1,0.4-0.2
		c0.9-0.5,1.6-1.1,2-1.7c0.5-0.7,0.6-1.5,0.7-2.4c0.1-0.5-0.5-1.7-1.3-2.4c-0.5-0.4-1.2-0.5-2-0.5l-0.1-1.6l-1.3,0.2l0.1,1.5
		l-1.7,0.2l-0.1-1.5l-1.3,0.2l0.1,1.5l-3.6,0.5l0.1,0.9l0.2,0c0.7,0,1.1,0,1.2,0.2c0.1,0.2,0.3,0.7,0.3,1.6l0.8,9.2
		c0.1,0.9,0.1,1.5-0.1,1.7c-0.1,0.2-0.5,0.4-1.1,0.5l-0.2,0l0.1,0.9l3.6-0.5l0.1,1.2l1.3-0.2l-0.1-1.2l1.7-0.2l0.1,1.2l1.3-0.2
		l-0.1-1.3c1-0.2,1.8-0.6,2.3-1.2c0.7-0.7,1.1-1.7,1-3C386.4,106,386,105.2,385.3,104.6z M379,97.7l0.2,0c0.6-0.1,1.2,0,1.6,0.1
		c0.2,0.1,0.4,0.2,0.6,0.3c0.4,0.3,0.7,0.9,0.8,1.6l0.1,0.9c0,0.8-0.2,1.4-0.5,1.9c-0.2,0.2-0.3,0.4-0.5,0.5
		c-0.4,0.3-0.9,0.4-1.6,0.5l-0.1,0L379,97.7z M383,109.2c0,0.1-0.1,0.2-0.2,0.2c-0.3,0.4-0.6,0.6-1.1,0.8c-0.2,0.1-0.5,0.2-0.7,0.2
		c-0.4,0.1-0.8,0-1-0.1l-0.5-5.9l0.2,0c0.6-0.1,1.1,0,1.6,0.1c0.3,0.1,0.6,0.3,0.9,0.5c0.2,0.1,0.3,0.3,0.5,0.4
		c0.4,0.5,0.6,1.1,0.7,1.8C383.5,108,383.3,108.7,383,109.2z"/>
</g>
</svg>
